<?xml version="1.0" standalone="no"?>
<!DOCTYPE svg PUBLIC "-//W3C//DTD SVG 20010904//EN"
 "http://www.w3.org/TR/2001/REC-SVG-20010904/DTD/svg10.dtd">
<svg version="1.0" xmlns="http://www.w3.org/2000/svg"
 width="560.000000pt" height="446.000000pt" viewBox="0 0 560.000000 446.000000"
 preserveAspectRatio="xMidYMid meet">

<g transform="translate(0.000000,446.000000) scale(0.100000,-0.100000)"
fill="#000000" stroke="none">
<path d="M1059 4445 c-190 -38 -353 -188 -415 -385 -14 -45 -18 -114 -24 -380
-11 -486 -51 -709 -173 -970 -79 -171 -231 -301 -385 -331 l-62 -12 0 -137 0
-137 62 -12 c210 -41 367 -220 463 -531 66 -215 85 -371 94 -765 9 -365 12
-384 78 -504 76 -137 215 -237 370 -267 112 -21 3354 -21 3466 0 156 30 293
130 371 269 65 115 68 137 76 497 6 249 12 355 28 455 46 291 96 444 198 605
80 126 204 215 334 241 l60 12 0 137 0 137 -62 12 c-234 46 -407 272 -492 644
-46 198 -59 328 -66 657 -8 360 -11 382 -76 497 -78 139 -215 239 -371 269
-106 20 -3372 19 -3474 -1z m2071 -1045 c136 -28 263 -92 347 -177 222 -221
209 -594 -27 -800 -48 -42 -145 -95 -199 -109 l-46 -12 40 -7 c123 -20 240
-75 324 -152 78 -70 122 -138 157 -238 24 -68 28 -96 28 -190 0 -122 -16 -200
-64 -300 -71 -149 -232 -277 -414 -329 -144 -42 -209 -46 -783 -46 l-553 0 0
1190 0 1190 548 0 c503 0 555 -2 642 -20z"/>
<path d="M2330 2765 l0 -345 273 0 c302 0 364 8 464 58 60 31 120 87 147 140
23 45 36 143 26 210 -20 144 -112 234 -272 266 -59 12 -143 16 -358 16 l-280
0 0 -345z"/>
<path d="M2330 1734 l0 -386 333 5 c259 3 345 8 392 20 169 44 270 142 295
287 28 154 -21 287 -133 364 -114 78 -227 96 -614 96 l-273 0 0 -386z"/>
</g>
</svg>
