<?xml version="1.0" standalone="no"?>
<!DOCTYPE svg PUBLIC "-//W3C//DTD SVG 20010904//EN"
 "http://www.w3.org/TR/2001/REC-SVG-20010904/DTD/svg10.dtd">
<svg version="1.0" xmlns="http://www.w3.org/2000/svg"
 width="500.000000pt" height="500.000000pt" viewBox="0 0 500.000000 500.000000"
 preserveAspectRatio="xMidYMid meet">

<g transform="translate(0.000000,500.000000) scale(0.100000,-0.100000)"
fill="#000000" stroke="none">
<path d="M1123 4043 c4 -27 11 -115 17 -198 11 -155 48 -575 149 -1725 33
-366 62 -704 66 -752 l7 -88 66 -19 c98 -29 296 -83 306 -85 5 0 16 26 24 59
7 33 38 153 68 266 l55 207 -31 341 c-16 187 -30 347 -30 356 0 13 20 15 125
15 69 0 125 2 125 5 0 3 24 97 54 208 30 111 59 225 65 252 6 28 13 60 17 73
l6 22 -219 0 -219 0 -22 268 c-13 147 -23 275 -22 285 0 16 22 17 318 17 l318
0 18 78 c10 42 40 159 67 260 27 100 49 187 49 192 0 6 -251 10 -691 10 l-692
0 6 -47z"/>
<path d="M2781 4053 c-6 -21 -37 -140 -70 -264 -34 -125 -61 -230 -61 -233 0
-3 142 -6 316 -6 l315 0 -5 -42 c-7 -46 -46 -490 -46 -514 0 -12 -58 -14 -369
-14 l-369 0 -5 -22 c-8 -35 -127 -501 -133 -520 -5 -17 19 -18 410 -18 l416 0
0 -22 c-2 -77 -68 -680 -76 -687 -5 -4 -52 -20 -104 -34 -52 -15 -168 -47
-257 -72 -229 -63 -240 -64 -408 -19 -209 55 -189 57 -209 -18 -9 -34 -41
-153 -71 -263 -29 -110 -53 -201 -52 -201 1 -1 110 -32 242 -69 218 -62 244
-67 285 -58 25 5 178 47 340 92 162 45 385 107 495 138 110 30 217 59 238 65
35 11 37 13 37 55 0 24 22 294 50 601 83 934 158 1799 170 1962 6 85 13 165
16 178 l4 22 -544 0 -545 0 -10 -37z"/>
</g>
</svg>
