<?xml version="1.0" standalone="no"?>
<!DOCTYPE svg PUBLIC "-//W3C//DTD SVG 20010904//EN"
 "http://www.w3.org/TR/2001/REC-SVG-20010904/DTD/svg10.dtd">
<svg version="1.0" xmlns="http://www.w3.org/2000/svg"
 width="500.000000pt" height="500.000000pt" viewBox="0 0 500.000000 500.000000"
 preserveAspectRatio="xMidYMid meet">

<g transform="translate(0.000000,500.000000) scale(0.100000,-0.100000)"
fill="#000000" stroke="none">
<path d="M325 4968 c3 -18 21 -229 40 -468 41 -501 80 -940 240 -2714 63 -704
116 -1281 118 -1282 3 -3 337 -96 482 -134 66 -17 380 -105 698 -196 318 -90
587 -164 597 -164 10 0 297 79 637 175 340 97 663 187 718 201 106 27 418 114
422 118 1 1 68 728 148 1616 175 1949 172 1911 185 2085 18 236 59 718 65 758
l5 37 -2180 0 -2181 0 6 -32z m3549 -886 c2 -4 -7 -126 -20 -272 -13 -146 -24
-271 -24 -277 0 -10 -217 -13 -1049 -13 l-1050 0 5 -32 c5 -38 44 -484 44
-504 0 -12 159 -14 1001 -14 l1000 0 -5 -42 c-7 -51 -42 -452 -96 -1098 -22
-261 -42 -495 -45 -520 l-6 -45 -558 -158 c-306 -86 -564 -157 -572 -157 -8 0
-245 65 -525 144 -280 80 -530 150 -556 156 -57 15 -47 -35 -88 455 -17 198
-33 381 -36 408 l-6 47 284 0 284 0 19 -221 c10 -121 23 -226 29 -234 6 -7 79
-31 161 -53 83 -22 214 -56 292 -77 l141 -37 179 47 c98 25 231 61 297 78 93
24 120 35 126 51 5 12 20 158 34 326 15 168 29 320 32 338 l5 32 -948 0 c-761
0 -949 2 -951 12 -8 37 -150 1653 -146 1660 7 10 2741 11 2748 0z"/>
</g>
</svg>
