<?xml version="1.0" standalone="no"?>
<!DOCTYPE svg PUBLIC "-//W3C//DTD SVG 20010904//EN"
 "http://www.w3.org/TR/2001/REC-SVG-20010904/DTD/svg10.dtd">
<svg version="1.0" xmlns="http://www.w3.org/2000/svg"
 width="500.000000pt" height="500.000000pt" viewBox="0 0 500.000000 500.000000"
 preserveAspectRatio="xMidYMid meet">

<g transform="translate(0.000000,500.000000) scale(0.100000,-0.100000)"
fill="#000000" stroke="none">
<path d="M1988 4473 c-11 -3 -18 -14 -18 -29 0 -19 -5 -24 -25 -24 -14 0 -25
-3 -25 -7 0 -5 -3 -18 -6 -30 -5 -17 -2 -23 9 -23 20 0 29 -24 14 -39 -8 -8
-5 -17 12 -34 16 -15 25 -18 28 -9 7 17 30 15 41 -4 11 -20 57 -15 57 6 1 24
15 41 33 38 23 -4 28 37 8 58 -19 18 -20 30 -5 39 7 5 5 13 -6 26 -13 13 -25
16 -46 12 -22 -4 -29 -2 -29 11 0 16 -9 18 -42 9z m62 -110 c0 -20 -4 -24 -22
-21 -25 3 -37 36 -17 48 20 13 39 0 39 -27z"/>
<path d="M2438 4438 c-8 -7 -21 -34 -28 -60 -11 -42 -17 -49 -49 -58 -49 -14
-48 -14 -91 20 -45 35 -59 37 -93 10 l-26 -21 21 -54 20 -53 -28 -37 c-27 -36
-28 -37 -85 -30 l-58 7 -12 -41 c-7 -23 -10 -43 -8 -44 2 -2 25 -18 52 -36 41
-28 47 -37 47 -66 0 -29 -6 -38 -47 -66 -27 -18 -50 -34 -52 -36 -2 -1 1 -21
8 -43 l12 -40 63 0 c57 0 64 -2 84 -30 l22 -29 -20 -51 c-22 -57 -22 -60 19
-89 l29 -21 47 36 c45 35 49 36 85 25 34 -10 39 -16 56 -69 18 -54 21 -57 55
-60 42 -4 51 6 68 69 12 42 17 48 52 58 38 12 42 11 89 -24 l50 -37 30 22 c35
25 35 27 13 90 -16 46 -16 48 6 78 21 30 26 32 85 32 62 0 62 0 75 35 15 42
12 48 -45 81 -40 24 -44 29 -44 65 0 36 4 42 50 71 27 18 50 37 50 41 0 4 -7
23 -15 43 l-14 35 -51 -7 c-41 -5 -54 -3 -71 12 -38 34 -41 50 -19 106 l20 53
-27 22 c-36 29 -42 29 -93 -8 -72 -52 -124 -28 -144 67 -9 41 -55 58 -88 32z
m180 -226 c4 -28 -24 -40 -45 -19 -14 13 -14 19 -3 32 18 22 44 15 48 -13z
m-60 -109 c52 -38 74 -83 70 -139 -7 -88 -68 -144 -158 -144 -88 0 -150 55
-158 140 -9 100 64 175 166 167 32 -2 63 -12 80 -24z m-309 4 c15 -19 -9 -50
-32 -41 -17 6 -23 35 -10 47 10 11 30 8 42 -6z m488 -243 c3 -8 -1 -22 -9 -30
-12 -12 -17 -12 -33 -1 -23 17 -14 47 15 47 11 0 23 -7 27 -16z m-372 -124 c0
-16 -6 -26 -18 -28 -19 -4 -32 20 -23 44 9 25 41 13 41 -16z"/>
<path d="M2399 4041 c-37 -37 -38 -79 -3 -120 52 -63 154 -28 154 53 0 48 -8
65 -41 81 -43 23 -77 18 -110 -14z"/>
<path d="M3186 4184 c-4 -11 -13 -14 -31 -10 -19 5 -26 1 -37 -21 -7 -16 -20
-28 -28 -28 -9 0 -15 -10 -15 -27 -1 -14 -7 -33 -14 -41 -10 -13 -9 -20 4 -40
8 -13 13 -31 10 -39 -4 -10 1 -17 14 -21 12 -3 25 -16 30 -30 8 -19 15 -24 31
-20 11 3 27 0 35 -7 13 -11 20 -11 40 0 13 7 31 10 40 6 10 -3 18 1 22 12 10
25 31 44 43 37 11 -7 13 5 10 44 -1 13 4 28 12 33 10 7 10 11 1 15 -7 2 -13
20 -13 38 0 24 -5 34 -20 38 -11 3 -24 16 -29 30 -8 19 -15 23 -35 20 -18 -4
-28 0 -32 11 -8 21 -30 21 -38 0z m99 -57 c59 -59 58 -116 -1 -175 -32 -32
-38 -34 -86 -30 -71 7 -108 47 -108 117 0 78 42 119 124 120 30 1 45 -6 71
-32z"/>
<path d="M1575 3861 c-24 -5 -31 -12 -33 -37 -2 -24 -10 -33 -36 -42 -43 -16
-56 -15 -77 4 -16 14 -20 13 -59 -22 -56 -51 -66 -71 -45 -94 28 -31 -7 -110
-49 -110 -19 0 -24 -7 -29 -38 -4 -20 -4 -54 -1 -74 6 -32 10 -37 37 -40 25
-3 33 -10 46 -45 14 -39 14 -44 -3 -62 -18 -20 -18 -21 9 -52 29 -35 69 -69
81 -69 4 0 16 7 26 17 14 13 23 14 41 6 12 -6 30 -14 40 -17 11 -3 17 -16 17
-34 0 -27 4 -30 40 -36 22 -3 58 -3 80 0 35 6 40 10 40 34 0 22 7 30 42 43 39
16 43 16 60 0 18 -16 21 -16 46 -1 15 9 40 32 56 52 28 34 29 36 12 55 -16 18
-17 24 -4 63 13 37 19 43 45 46 28 3 31 7 37 45 3 23 2 58 -2 77 -6 28 -12 34
-28 32 -24 -3 -35 9 -54 56 -11 28 -10 35 4 51 22 24 13 44 -44 95 -40 36 -42
37 -61 20 -18 -16 -24 -17 -62 -4 -34 12 -43 21 -47 45 -4 23 -12 31 -35 36
-38 8 -52 8 -90 0z m112 -206 c50 -21 72 -42 94 -90 57 -123 -27 -255 -161
-255 -74 0 -126 33 -162 104 -42 81 -2 192 84 235 51 25 95 27 145 6z"/>
<path d="M3083 3854 c-4 -12 -14 -14 -35 -10 -26 5 -29 3 -23 -14 5 -15 0 -22
-21 -30 -25 -10 -26 -12 -11 -28 15 -17 15 -19 0 -35 -15 -15 -15 -17 11 -27
21 -8 26 -15 21 -30 -6 -18 -3 -19 24 -14 24 5 31 3 31 -10 0 -21 19 -21 27 0
4 11 14 14 34 10 25 -5 28 -3 26 17 -1 16 4 23 21 25 26 4 27 10 7 32 -14 15
-14 18 0 30 21 18 19 28 -7 32 -17 2 -22 9 -21 25 2 20 -1 22 -27 16 -23 -4
-30 -2 -30 11 0 21 -19 21 -27 0z m41 -70 c9 -8 16 -22 16 -29 0 -7 -7 -21
-16 -29 -8 -9 -22 -16 -29 -16 -7 0 -21 7 -29 16 -9 8 -16 22 -16 29 0 7 7 21
16 29 8 9 22 16 29 16 7 0 21 -7 29 -16z"/>
<path d="M3332 3641 c-8 -4 -12 -16 -10 -26 2 -13 -8 -20 -47 -30 -49 -13 -64
-8 -65 18 0 9 -38 -9 -62 -31 -14 -12 -15 -18 -6 -29 9 -11 4 -21 -25 -50 -30
-30 -38 -34 -51 -24 -12 11 -18 6 -35 -26 -19 -38 -19 -40 -1 -51 16 -10 17
-16 8 -44 -6 -18 -12 -39 -14 -45 -2 -7 -13 -13 -24 -13 -17 0 -20 -6 -20 -39
0 -33 4 -40 22 -43 31 -4 49 -85 23 -104 -16 -12 -16 -15 5 -49 18 -29 25 -34
37 -24 12 10 21 6 50 -24 32 -31 35 -38 23 -52 -12 -14 -11 -18 1 -26 33 -23
69 -39 69 -32 1 26 16 31 65 18 39 -10 50 -17 48 -31 -2 -23 14 -34 49 -34 21
0 27 5 30 26 3 23 10 29 53 40 64 17 65 17 65 -1 0 -21 23 -19 51 4 18 15 21
22 12 32 -15 19 63 107 80 90 17 -17 25 -13 43 21 15 29 15 32 -1 41 -13 7
-15 17 -10 46 10 61 16 71 36 71 14 0 19 7 19 30 0 23 -5 30 -19 30 -20 0 -26
10 -36 71 -5 29 -3 39 10 46 16 9 16 12 1 41 -17 33 -30 40 -42 21 -4 -7 -23
5 -50 32 -35 35 -41 45 -32 57 10 11 8 18 -11 33 -28 23 -51 25 -51 4 0 -18
-1 -18 -65 -1 -43 11 -50 17 -53 40 -3 21 -9 26 -30 26 -15 0 -33 -4 -40 -9z
m138 -110 c119 -45 194 -154 194 -281 0 -208 -202 -351 -400 -283 -66 22 -153
110 -177 178 -22 64 -22 146 0 210 24 65 112 156 173 178 62 22 149 21 210 -2z"/>
<path d="M3316 3400 c-61 -19 -106 -85 -106 -156 0 -153 201 -215 294 -91 16
22 21 43 21 92 0 68 -15 100 -66 137 -29 21 -103 31 -143 18z"/>
<path d="M2765 3470 c-3 -5 -12 -10 -20 -10 -18 0 -67 -45 -59 -53 4 -4 15 4
25 18 11 13 33 26 49 30 17 4 30 11 30 16 0 12 -17 12 -25 -1z"/>
<path d="M2811 3460 c-10 -6 -8 -10 9 -15 32 -10 52 -65 39 -104 -11 -32 -53
-61 -86 -61 -13 0 -14 -3 -5 -12 8 -8 15 -8 26 1 7 6 18 10 22 9 14 -5 54 40
54 61 0 11 6 22 13 25 10 5 10 7 0 12 -7 3 -13 14 -13 24 0 27 -43 71 -59 60z"/>
<path d="M2674 3379 c-3 -6 -1 -16 5 -22 8 -8 11 -5 11 11 0 24 -5 28 -16 11z"/>
<path d="M2686 3332 c-11 -10 -6 -22 7 -22 8 0 18 -9 23 -20 5 -11 14 -16 19
-12 6 4 -1 18 -17 33 -15 15 -29 24 -32 21z"/>
<path d="M1863 3110 c-6 -23 -41 -36 -56 -21 -22 22 -37 12 -35 -21 3 -26 -1
-33 -21 -38 -30 -7 -37 -23 -16 -40 19 -16 19 -34 0 -50 -22 -19 -19 -43 5
-37 24 6 44 -16 35 -42 -8 -25 9 -35 34 -19 15 9 23 9 35 -1 9 -8 16 -20 16
-27 0 -23 26 -16 38 11 12 25 36 33 47 15 12 -19 36 -11 35 13 -4 40 0 47 24
47 32 0 44 19 23 35 -10 7 -17 20 -17 30 0 10 7 23 17 30 21 16 9 35 -23 35
-24 0 -28 7 -24 48 1 23 -23 31 -35 12 -11 -18 -35 -10 -47 15 -13 30 -28 32
-35 5z m67 -60 c0 -5 -4 -10 -10 -10 -5 0 -10 5 -10 10 0 6 5 10 10 10 6 0 10
-4 10 -10z m-130 -46 c0 -8 -4 -12 -10 -9 -5 3 -10 10 -10 16 0 5 5 9 10 9 6
0 10 -7 10 -16z m127 -10 c15 -24 15 -29 2 -53 -30 -54 -109 -33 -109 29 0 53
76 70 107 24z m44 -77 c-13 -13 -26 -3 -16 12 3 6 11 8 17 5 6 -4 6 -10 -1
-17z m-131 -37 c0 -5 -4 -10 -10 -10 -5 0 -10 5 -10 10 0 6 5 10 10 10 6 0 10
-4 10 -10z"/>
<path d="M1490 3039 c0 -7 -12 -10 -30 -7 -30 4 -49 -7 -48 -27 1 -5 -11 -16
-25 -23 -22 -11 -25 -18 -20 -42 4 -22 1 -31 -11 -36 -20 -8 -21 -30 0 -38 8
-3 15 -16 14 -28 -3 -37 -1 -50 9 -44 10 7 40 -25 38 -39 -1 -5 13 -11 32 -12
19 -1 37 -7 42 -14 6 -11 13 -10 34 1 15 8 37 13 51 12 14 -1 24 4 24 12 0 13
36 51 49 51 3 0 5 15 3 33 -3 24 0 32 12 32 21 0 21 26 0 34 -12 5 -15 14 -10
36 5 26 2 32 -19 40 -14 5 -30 21 -35 36 -8 20 -13 24 -23 16 -9 -8 -21 -7
-41 3 -34 18 -46 19 -46 4z m79 -39 c80 -40 94 -146 27 -207 -88 -81 -229 -8
-213 109 6 43 26 71 72 99 38 24 66 24 114 -1z"/>
<path d="M3370 2805 c0 -10 -10 -15 -29 -15 -33 0 -54 -20 -45 -43 3 -9 -3
-23 -15 -34 -26 -22 -26 -35 -1 -58 12 -10 18 -25 15 -33 -8 -21 22 -51 45
-45 12 3 22 -1 26 -11 4 -9 18 -16 34 -16 16 0 30 7 34 16 4 10 14 14 26 11
21 -5 56 26 46 42 -4 6 2 19 14 31 23 23 27 60 6 60 -16 0 -29 27 -20 41 10
17 -17 39 -47 39 -19 0 -29 5 -29 15 0 10 -10 15 -30 15 -20 0 -30 -5 -30 -15z
m80 -75 c11 -11 20 -31 20 -45 0 -31 -41 -75 -70 -75 -29 0 -70 44 -70 75 0
34 33 65 70 65 17 0 39 -9 50 -20z"/>
<path d="M2153 2803 c-14 -3 -23 -13 -25 -30 -2 -19 -13 -29 -41 -40 -34 -14
-39 -14 -56 1 -18 16 -21 15 -55 -15 -51 -45 -62 -66 -42 -88 15 -16 15 -21 1
-54 -12 -28 -21 -37 -40 -37 -20 0 -25 -6 -31 -35 -3 -19 -3 -51 0 -70 6 -33
5 -35 -19 -35 -14 0 -25 5 -25 12 0 9 -3 9 -12 0 -7 -7 -19 -12 -28 -12 -17 0
-56 -40 -52 -54 1 -4 -3 -14 -9 -22 -9 -11 -8 -18 1 -29 7 -9 10 -18 7 -21 -2
-3 6 -16 20 -30 14 -14 28 -23 30 -20 3 3 -5 14 -18 25 -33 27 -33 95 0 122
77 62 180 -42 113 -114 -24 -25 -28 -37 -12 -37 6 0 10 5 10 11 0 7 7 17 16
24 23 16 23 94 0 110 -24 18 -20 35 9 35 19 0 28 -8 40 -37 14 -33 14 -38 -1
-54 -20 -22 -9 -46 43 -88 33 -27 39 -29 53 -16 21 19 34 19 70 0 20 -11 30
-23 30 -39 0 -19 7 -24 33 -28 17 -3 46 -3 64 -1 25 4 32 10 35 31 2 20 12 30
41 41 34 12 39 12 56 -3 19 -17 21 -16 65 24 50 47 54 55 31 80 -14 16 -14 21
1 54 13 26 24 36 41 36 27 0 36 26 31 91 -3 39 -6 44 -29 47 -18 2 -31 13 -43
39 -15 32 -15 37 -1 53 23 25 19 33 -31 80 -43 40 -46 41 -64 25 -18 -16 -23
-16 -57 -2 -28 11 -39 21 -41 40 -4 33 -41 43 -109 30z m128 -196 c37 -24 79
-97 79 -137 0 -46 -42 -113 -85 -137 -153 -86 -314 101 -205 239 46 59 149 76
211 35z"/>
<path d="M3315 2500 c-4 -6 -13 -9 -21 -6 -8 3 -14 -1 -14 -9 0 -8 -7 -15 -16
-15 -8 0 -12 -5 -9 -11 4 -6 -1 -17 -11 -24 -18 -14 -18 -14 -1 -15 14 0 17
-5 12 -21 -5 -14 -3 -19 3 -15 6 4 15 0 19 -9 9 -15 29 -19 71 -17 13 1 21 6
17 11 -3 6 3 14 12 20 10 6 14 11 9 11 -5 0 -2 7 5 17 10 12 11 17 2 20 -7 2
-10 10 -7 17 3 8 -2 16 -11 20 -9 3 -13 11 -9 18 5 8 2 9 -11 4 -10 -4 -21 -2
-25 5 -6 8 -9 8 -15 -1z m51 -45 c32 -50 -22 -103 -72 -70 -26 17 -33 62 -12
83 21 21 66 14 84 -13z"/>
<path d="M2597 2356 c-4 -9 -13 -13 -22 -10 -10 4 -15 0 -15 -10 0 -9 -7 -16
-16 -16 -8 0 -12 -5 -8 -11 3 -6 0 -15 -7 -20 -11 -7 -11 -11 -1 -17 8 -5 10
-16 6 -27 -5 -13 -4 -16 4 -11 7 4 15 0 18 -9 4 -9 13 -14 20 -11 7 3 17 -2
22 -11 8 -13 10 -13 16 2 5 13 9 15 20 6 11 -9 15 -7 19 10 4 13 10 18 18 13
9 -5 10 -2 5 11 -4 11 -2 22 6 27 10 6 10 10 -1 17 -7 5 -10 14 -7 20 4 6 0
11 -8 11 -9 0 -16 7 -16 16 0 10 -6 14 -15 10 -8 -3 -18 2 -23 11 -8 14 -10
14 -15 -1z m47 -42 c9 -8 16 -24 16 -35 0 -23 -34 -59 -55 -59 -21 0 -55 36
-55 59 0 27 26 51 55 51 13 0 31 -7 39 -16z"/>
<path d="M1797 2219 c8 -8 16 -8 30 0 16 9 14 10 -11 11 -22 0 -27 -3 -19 -11z"/>
<path d="M2480 2145 c-10 -26 -38 -33 -57 -14 -7 7 -19 9 -27 6 -12 -5 -14
-12 -7 -30 11 -29 -2 -47 -35 -47 -29 0 -39 -27 -14 -40 11 -6 20 -19 20 -30
0 -11 -9 -24 -20 -30 -26 -14 -15 -38 18 -42 23 -3 27 -8 28 -35 0 -42 9 -49
38 -33 31 16 56 7 56 -20 0 -28 33 -26 45 3 10 23 28 25 74 11 22 -6 23 -5 17
19 -9 38 2 57 35 57 32 0 39 19 14 40 -20 16 -19 47 2 58 23 14 9 40 -24 44
-25 3 -28 7 -26 35 3 35 -12 52 -30 34 -19 -19 -47 -12 -59 14 -6 14 -17 25
-25 25 -7 0 -18 -11 -23 -25z m85 -65 c-3 -5 -10 -10 -16 -10 -5 0 -9 5 -9 10
0 6 7 10 16 10 8 0 12 -4 9 -10z m-145 -45 c0 -8 -4 -15 -10 -15 -5 0 -10 7
-10 15 0 8 5 15 10 15 6 0 10 -7 10 -15z m130 -5 c40 -40 12 -100 -45 -100
-40 0 -65 22 -65 57 0 57 69 84 110 43z m57 -96 c-9 -9 -28 6 -21 18 4 6 10 6
17 -1 6 -6 8 -13 4 -17z m-139 -35 c-2 -6 -8 -10 -13 -10 -5 0 -11 4 -13 10
-2 6 4 11 13 11 9 0 15 -5 13 -11z"/>
<path d="M2120 1775 c-7 -8 -23 -15 -36 -15 -13 0 -24 -3 -25 -7 0 -5 -2 -18
-3 -31 -2 -12 -11 -29 -22 -36 -18 -14 -18 -15 1 -36 11 -12 20 -32 20 -44 0
-15 7 -22 27 -24 14 -2 32 -10 38 -18 16 -19 46 -18 54 2 3 8 14 14 23 12 26
-4 43 10 43 34 0 12 7 30 17 40 15 17 15 19 0 36 -10 10 -17 28 -17 40 0 24
-17 38 -43 34 -9 -2 -20 4 -23 12 -8 20 -38 21 -54 1z m69 -72 c46 -57 -27
-125 -81 -76 -25 23 -23 68 4 87 32 23 54 20 77 -11z"/>
<path d="M2321 1738 c-14 -23 -14 -23 8 -4 22 20 25 26 13 26 -4 0 -13 -10
-21 -22z"/>
<path d="M2405 1750 c3 -5 8 -10 11 -10 2 0 4 5 4 10 0 6 -5 10 -11 10 -5 0
-7 -4 -4 -10z"/>
<path d="M2596 1734 c-3 -9 -12 -14 -20 -11 -17 7 -36 -11 -36 -35 0 -10 -4
-18 -10 -18 -15 0 -12 -26 4 -40 8 -6 12 -18 9 -26 -3 -8 3 -16 13 -20 11 -3
29 -10 40 -16 14 -7 27 -7 40 0 11 6 27 13 38 16 10 4 16 12 13 20 -3 8 1 20
9 26 16 14 19 37 3 42 -5 2 -11 10 -12 18 -4 26 -17 39 -32 34 -8 -4 -18 1
-21 10 -3 9 -12 16 -19 16 -7 0 -16 -7 -19 -16z m52 -46 c7 -7 12 -24 12 -40
0 -50 -66 -62 -91 -17 -23 43 44 92 79 57z"/>
<path d="M2860 1723 c0 -7 -7 -13 -15 -13 -8 0 -15 -7 -15 -15 0 -18 11 -19
33 -2 12 8 14 16 7 27 -6 10 -10 11 -10 3z"/>
<path d="M2892 1680 c3 -30 -2 -37 -40 -57 -2 -1 1 -10 7 -20 6 -10 11 -12 11
-5 0 6 7 12 15 12 8 0 15 9 15 20 0 12 5 17 13 14 19 -7 15 28 -6 49 -18 18
-18 18 -15 -13z"/>
<path d="M2804 1663 c0 -10 9 -26 18 -35 16 -16 18 -16 18 -2 0 19 -18 54 -28
54 -4 0 -8 -8 -8 -17z"/>
<path d="M2321 1643 c8 -13 20 -23 28 -23 8 0 12 1 10 3 -2 1 -15 11 -28 22
l-24 20 14 -22z"/>
<path d="M2400 1630 c-13 -8 -12 -10 3 -10 9 0 17 5 17 10 0 12 -1 12 -20 0z"/>
<path d="M2081 1515 c-124 -39 -119 -122 11 -160 49 -14 107 -16 420 -13 349
3 365 4 411 25 80 37 82 90 6 133 l-44 25 -380 2 c-300 2 -389 -1 -424 -12z"/>
<path d="M2067 1286 c-95 -34 -105 -95 -23 -139 40 -22 47 -22 446 -22 391 0
406 1 440 21 42 24 63 60 49 85 -5 10 -24 28 -41 41 l-33 23 -400 2 c-320 2
-408 0 -438 -11z"/>
<path d="M2065 1064 c-80 -29 -107 -81 -62 -121 52 -46 69 -48 482 -48 387 0
390 0 433 23 58 31 72 63 45 100 -43 57 -71 61 -483 61 -302 0 -383 -3 -415
-15z"/>
<path d="M2166 793 c18 -102 80 -185 176 -234 32 -17 66 -24 129 -27 78 -4 92
-2 148 23 80 36 154 115 176 187 28 97 59 88 -310 88 l-326 0 7 -37z"/>
</g>
</svg>
