<?xml version="1.0" standalone="no"?>
<!DOCTYPE svg PUBLIC "-//W3C//DTD SVG 20010904//EN"
 "http://www.w3.org/TR/2001/REC-SVG-20010904/DTD/svg10.dtd">
<svg version="1.0" xmlns="http://www.w3.org/2000/svg"
 width="500.000000pt" height="500.000000pt" viewBox="0 0 500.000000 500.000000"
 preserveAspectRatio="xMidYMid meet">

<g transform="translate(0.000000,500.000000) scale(0.100000,-0.100000)"
fill="#000000" stroke="none">
<path d="M3670 2718 c-269 -38 -473 -209 -535 -448 -26 -101 -17 -300 18 -400
53 -148 159 -266 327 -365 41 -24 161 -82 267 -128 270 -119 325 -154 365
-231 26 -51 29 -147 6 -191 -47 -89 -140 -136 -278 -143 -109 -5 -196 13 -270
55 -56 32 -142 113 -182 173 -17 25 -32 46 -34 48 -3 5 -374 -210 -374 -217 0
-15 59 -105 99 -153 127 -152 303 -251 526 -300 86 -18 361 -16 451 4 279 63
467 230 525 468 19 77 17 268 -4 350 -59 227 -221 376 -572 530 -320 139 -401
192 -424 276 -44 160 51 278 224 277 116 0 194 -47 280 -167 l20 -27 165 106
c91 59 171 110 179 114 11 7 4 22 -30 72 -53 79 -139 164 -211 207 -139 83
-345 118 -538 90z"/>
<path d="M2248 1843 c-3 -801 -4 -861 -21 -898 -52 -115 -175 -161 -317 -119
-62 18 -138 88 -184 169 -16 28 -30 51 -31 53 -2 2 -87 -48 -189 -110 -140
-84 -185 -116 -181 -128 35 -92 172 -245 274 -304 177 -103 436 -133 654 -77
169 44 307 152 377 295 79 161 74 95 78 1089 l3 887 -230 0 -230 0 -3 -857z"/>
</g>
</svg>
