<?xml version="1.0" encoding="UTF-8"?>
<svg version="1.1" xmlns="http://www.w3.org/2000/svg" width="481" height="519">
<path d="M0 0 C0.94939453 0.26103516 0.94939453 0.26103516 1.91796875 0.52734375 C6.10995154 1.17022071 10.09508686 0.85209348 14.3125 0.5625 C15.14845703 0.51029297 15.98441406 0.45808594 16.84570312 0.40429688 C18.89750789 0.27532629 20.94881306 0.13844979 23 0 C25.96305234 4.9364452 27.53001568 8.24269207 28 14 C28.99 14 29.98 14 31 14 C32.5159375 14.0309375 32.5159375 14.0309375 34.0625 14.0625 C36.93459792 14.21107035 36.93459792 14.21107035 39 13 C40.04808041 11.02477154 41.0520411 9.02518491 42 7 C42.66 7 43.32 7 44 7 C44.33 6.01 44.66 5.02 45 4 C52.93411561 5.40013805 60.79760484 8.39880242 68 12 C67.98259766 13.13888672 67.98259766 13.13888672 67.96484375 14.30078125 C67.95582031 15.29464844 67.94679688 16.28851563 67.9375 17.3125 C67.92009766 18.79169922 67.92009766 18.79169922 67.90234375 20.30078125 C67.87670138 23.09963849 67.87670138 23.09963849 69 26 C70.98723268 26.70381157 72.98777953 27.3711811 75 28 C75.33 28.66 75.66 29.32 76 30 C76.78375 29.34 77.5675 28.68 78.375 28 C81 26 81 26 83 26 C83.33 25.34 83.66 24.68 84 24 C85.6875 22.75 85.6875 22.75 88 22 C93.69710682 22.96972031 95.62038748 25.68160623 99 30 C99.66 30 100.32 30 101 30 C101 30.66 101 31.32 101 32 C101.61875 32.061875 102.2375 32.12375 102.875 32.1875 C105 33 105 33 106.3125 35.125 C107.32626342 39.36437429 106.60847036 43.06395795 105.3125 47.1875 C104.8593107 49.06470359 104.8593107 49.06470359 105.5625 51.125 C107.71782652 53.93629546 109.54755153 54.40246084 113 55 C116.08333333 53.66666667 116.08333333 53.66666667 119 52 C121.75 51.625 121.75 51.625 124 52 C126 55 126 55 126 58 C126.99 58.33 127.98 58.66 129 59 C131.36506843 61.00121175 131.9893322 61.96799661 133 65 C133.66 65.33 134.32 65.66 135 66 C135 66.99 135 67.98 135 69 C135.66 69.33 136.32 69.66 137 70 C136.67 71.65 136.34 73.3 136 75 C134.68 75.33 133.36 75.66 132 76 C132 77.32 132 78.64 132 80 C131.34 80 130.68 80 130 80 C129.67 81.32 129.34 82.64 129 84 C129.66 84 130.32 84 131 84 C131.66 85.98 132.32 87.96 133 90 C133.83144531 89.96519531 134.66289062 89.93039063 135.51953125 89.89453125 C137.14955078 89.85392578 137.14955078 89.85392578 138.8125 89.8125 C139.89144531 89.77769531 140.97039062 89.74289063 142.08203125 89.70703125 C145 90 145 90 146.88671875 91.26171875 C148 93 148 93 148 97 C148.66 97 149.32 97 150 97 C150.4021875 98.485 150.4021875 98.485 150.8125 100 C151.976839 104.09612784 153.46711578 108.02843633 155 112 C150.48746518 116.88857939 150.48746518 116.88857939 147.8125 117.5 C145.7749381 117.83890051 145.7749381 117.83890051 144.75 120.0625 C143.7850064 123.84205826 143.86790174 127.10310127 144 131 C145.65 131 147.3 131 149 131 C149 131.66 149 132.32 149 133 C149.928125 133.12375 150.85625 133.2475 151.8125 133.375 C155 134 155 134 158 136 C159.43341449 141.09136293 158.92401126 146.16425153 158.5625 151.375 C158.51029297 152.20644531 158.45808594 153.03789062 158.40429688 153.89453125 C158.27561269 155.93008108 158.13864593 157.96510441 158 160 C156.1128125 160.49113281 156.1128125 160.49113281 154.1875 160.9921875 C153.47980469 161.1763623 152.77210938 161.36053711 152.04296875 161.55029297 C149.65494297 162.07595543 147.43699199 162.152312 145 162 C143.67784227 168.25543007 143.67784227 168.25543007 145.8125 174.0625 C147.76250149 176.22101175 147.76250149 176.22101175 150 176 C152.25 177.875 152.25 177.875 154 181 C153.8242103 184.46891666 152.95137879 187.67017423 152 191 C151.70609375 192.09054687 151.70609375 192.09054687 151.40625 193.203125 C150.96230864 194.80914816 150.4851485 196.40594064 150 198 C149.34 198 148.68 198 148 198 C148 199.65 148 201.3 148 203 C144.45049966 204.16306443 141.44176052 203.92365049 137.75 203.5625 C136.67234375 203.46066406 135.5946875 203.35882813 134.484375 203.25390625 C133.66453125 203.17011719 132.8446875 203.08632813 132 203 C131.25865185 206.65690221 130.59955981 210.31698976 130 214 C130.66 214 131.32 214 132 214 C132.433125 214.928125 132.433125 214.928125 132.875 215.875 C133.93720042 218.13325765 133.93720042 218.13325765 136 220 C136.3125 222.9375 136.3125 222.9375 136 226 C134.6875 227.5 134.6875 227.5 133 229 C131.95377125 230.97620986 130.94560065 232.9737129 130 235 C129.34 235 128.68 235 128 235 C127.731875 235.763125 127.46375 236.52625 127.1875 237.3125 C126.03868178 239.91245703 125.32721056 241.38885423 123 243 C121.1875 242.75 121.1875 242.75 119 242 C118.01 241.855625 117.02 241.71125 116 241.5625 C113.27413881 241.05140103 111.38074357 240.37350591 109 239 C106.72885098 240.8923894 106.72885098 240.8923894 105 244 C104.85488015 248.42615542 105.65859647 252.66283618 106.75 256.9375 C107 259 107 259 105.75 260.8125 C104 262 104 262 101 262 C101 262.66 101 263.32 101 264 C99.35546875 265.18359375 99.35546875 265.18359375 97.1875 266.4375 C94.97444068 267.72341243 93.17067548 268.8243774 91.3828125 270.6640625 C90.92648437 271.10492188 90.47015625 271.54578125 90 272 C84.78834793 271.85914454 80.82083177 268.69944298 77.125 265.25 C76.75375 264.8375 76.3825 264.425 76 264 C75.34 264.99 74.68 265.98 74 267 C72.35 267 70.7 267 69 267 C68.67 271.95 68.34 276.9 68 282 C67.01 282.33 66.02 282.66 65 283 C64.67 283.66 64.34 284.32 64 285 C59.90805199 286.41644354 56.33291912 287.26260116 52 287 C52 287.66 52 288.32 52 289 C49.36 289.33 46.72 289.66 44 290 C43.05598958 288.2421875 42.11197917 286.484375 41.16796875 284.7265625 C39.95236507 282.69497635 39.95236507 282.69497635 37 281 C37 280.34 37 279.68 37 279 C35.88625 279.185625 34.7725 279.37125 33.625 279.5625 C30 280 30 280 28 279 C27.8453125 280.794375 27.8453125 280.794375 27.6875 282.625 C27.31308247 286.96824339 26.1791683 288.64166339 24 293 C15.75 293 7.5 293 -1 293 C-4 282 -4 282 -4 279 C-4.556875 279.185625 -5.11375 279.37125 -5.6875 279.5625 C-8 280 -8 280 -10.5 279.4375 C-12.96677292 278.81843144 -12.96677292 278.81843144 -15.1875 279.625 C-17.59275158 281.44967361 -18.05468087 283.16404261 -19 286 C-19.65213539 287.34050052 -20.31379969 288.67661368 -21 290 C-23.64 289.67 -26.28 289.34 -29 289 C-29 288.34 -29 287.68 -29 287 C-29.79857422 287.33451172 -29.79857422 287.33451172 -30.61328125 287.67578125 C-34.10935058 288.15069738 -36.09413665 286.79635037 -39.1875 285.1875 C-40.25355469 284.64480469 -41.31960937 284.10210937 -42.41796875 283.54296875 C-45 282 -45 282 -46 280 C-45.73942657 278.01312757 -45.47682163 276.02642498 -45.19140625 274.04296875 C-44.95666572 271.53747287 -45.3211012 269.41386241 -46 267 C-47.98 266.67 -49.96 266.34 -52 266 C-52 265.34 -52 264.68 -52 264 C-52.66 264 -53.32 264 -54 264 C-54.33 264.66 -54.66 265.32 -55 266 C-55.66 266.66 -56.32 267.32 -57 268 C-57.99 268 -58.98 268 -60 268 C-60 268.66 -60 269.32 -60 270 C-63 272 -63 272 -65.875 271.9375 C-69.7099 270.78703 -71.32018226 268.90313589 -74 266 C-74.66 266 -75.32 266 -76 266 C-76 265.34 -76 264.68 -76 264 C-76.66 264 -77.32 264 -78 264 C-78 263.34 -78 262.68 -78 262 C-79.2065625 261.6596875 -79.2065625 261.6596875 -80.4375 261.3125 C-83 260 -83 260 -83.75 257.75 C-84.03251771 254.6423052 -83.54514127 252.63542382 -82.5625 249.6875 C-82.27503906 248.80449219 -81.98757812 247.92148437 -81.69140625 247.01171875 C-81.46324219 246.34785156 -81.23507813 245.68398438 -81 245 C-83.36292656 242.47411298 -84.66462511 241.11179163 -88 240 C-90.57280167 240.65286453 -93.02272755 241.52982322 -95.52734375 242.40625 C-98.18433391 243.04426344 -99.50139763 243.07318824 -102 242 C-103.05464649 240.0282696 -104.04605164 238.02237052 -105 236 C-106.66247014 233.99651034 -108.32932867 231.99665598 -110 230 C-111.6569979 227.68121331 -112.78647127 225.62122205 -114 223 C-113.2214278 220.11928288 -112.11232755 219.11232755 -110 217 C-108.05852742 214.28407658 -108.05852742 214.28407658 -107 211 C-108.49366227 206.65783848 -108.49366227 206.65783848 -112 204 C-114.76412753 204.12723762 -117.5156962 204.32406667 -120.2734375 204.55078125 C-123 204 -123 204 -125.17578125 201.4609375 C-127.10622093 197.79847592 -128.54903024 194.24286284 -129.8125 190.3125 C-130.04130859 189.64927734 -130.27011719 188.98605469 -130.50585938 188.30273438 C-132.12680471 183.38041413 -132.12680471 183.38041413 -131 180 C-130.34 180 -129.68 180 -129 180 C-129 179.34 -129 178.68 -129 178 C-127.50390625 176.921875 -127.50390625 176.921875 -125.5625 175.75 C-122.73001539 173.81017721 -122.10953504 173.33545106 -121 169.9375 C-120.8812586 166.78778133 -120.8812586 166.78778133 -122 163 C-126.29 162.01 -130.58 161.02 -135 160 C-135.08060775 156.04126368 -135.14031373 152.08415238 -135.1875 148.125 C-135.21263672 146.99707031 -135.23777344 145.86914062 -135.26367188 144.70703125 C-135.27333984 143.63066406 -135.28300781 142.55429688 -135.29296875 141.4453125 C-135.3086792 140.45031738 -135.32438965 139.45532227 -135.34057617 138.43017578 C-135.22818604 137.62821777 -135.1157959 136.82625977 -135 136 C-132 134 -132 134 -128 134 C-127.505 133.01 -127.505 133.01 -127 132 C-123.9375 131.375 -123.9375 131.375 -121 131 C-121 127.37 -121 123.74 -121 120 C-122.32 119.34 -123.64 118.68 -125 118 C-126.33333333 117.33333333 -127.66666667 116.66666667 -129 116 C-129 115.34 -129 114.68 -129 114 C-129.66 114 -130.32 114 -131 114 C-131.30944366 109.77093668 -130.7348435 106.8469156 -128.93359375 103.01171875 C-127.79747336 100.56359322 -126.80684629 98.07136661 -125.8125 95.5625 C-125.214375 94.056875 -124.61625 92.55125 -124 91 C-119.05 90.67 -114.1 90.34 -109 90 C-108.67 88.02 -108.34 86.04 -108 84 C-107.34 84 -106.68 84 -106 84 C-106.495 83.05125 -106.99 82.1025 -107.5 81.125 C-109 78 -109 78 -109 76 C-109.66 76 -110.32 76 -111 76 C-111 75.34 -111 74.68 -111 74 C-111.66 74 -112.32 74 -113 74 C-112.67 71.69 -112.34 69.38 -112 67 C-111.34 67 -110.68 67 -110 67 C-109.731875 66.2575 -109.46375 65.515 -109.1875 64.75 C-108.04723249 62.10938051 -106.90619694 60.14447156 -105 58 C-104.34 58 -103.68 58 -103 58 C-102.34 56.02 -101.68 54.04 -101 52 C-94.46153846 52.76923077 -94.46153846 52.76923077 -91.5 54.25 C-88.79633099 55.30524753 -88.79633099 55.30524753 -85.25 53.9375 C-81.81614123 52.36569205 -81.81614123 52.36569205 -81.125 49.4375 C-81.08375 48.633125 -81.0425 47.82875 -81 47 C-80.505 46.01 -80.505 46.01 -80 45 C-80.99 45 -81.98 45 -83 45 C-84.67036397 38.19923242 -84.67036397 38.19923242 -82.87109375 34.98046875 C-79.36308104 30.80426314 -76.17473219 28.72491073 -71 27 C-70.505 25.515 -70.505 25.515 -70 24 C-65.02439024 21.67804878 -65.02439024 21.67804878 -61.8125 22.6875 C-60.00058815 23.9995741 -58.54724065 25.38829099 -57 27 C-55.68036291 28.01800576 -54.34990354 29.02248365 -53 30 C-52.01 28.515 -52.01 28.515 -51 27 C-50.154375 26.67 -49.30875 26.34 -48.4375 26 C-47.633125 25.67 -46.82875 25.34 -46 25 C-44.99503148 21.98509443 -44.89664697 19.95818308 -44.9375 16.8125 C-44.94652344 15.91144531 -44.95554687 15.01039062 -44.96484375 14.08203125 C-44.97644531 13.39496094 -44.98804688 12.70789063 -45 12 C-42.03 11.505 -42.03 11.505 -39 11 C-39 10.34 -39 9.68 -39 9 C-33.69905784 7.19695845 -28.39691512 5.49276376 -23 4 C-19.46413986 7.17320782 -17.41421969 9.16743695 -17 14 C-15.37675914 14.22162329 -13.751279 14.42689803 -12.125 14.625 C-11.22007812 14.74101563 -10.31515625 14.85703125 -9.3828125 14.9765625 C-8.59648437 14.98429687 -7.81015625 14.99203125 -7 15 C-4.67217875 12.67217875 -4.34911406 11.20514496 -3.5 8.0625 C-2.61778163 4.80692244 -1.90242149 2.85363224 0 0 Z M-46.375 48.5 C-47.04144531 48.86762451 -47.70789063 49.23524902 -48.39453125 49.61401367 C-52.65894374 52.0406317 -56.39851765 54.65496995 -60 58 C-60 58.66 -60 59.32 -60 60 C-60.72703125 60.23976563 -61.4540625 60.47953125 -62.203125 60.7265625 C-75.19214669 66.64055841 -84.51536104 83.94582928 -91 96 C-91.49258301 96.90419678 -91.49258301 96.90419678 -91.99511719 97.82666016 C-94.56229098 102.70911134 -96.23006563 107.54810863 -97.625 112.875 C-97.83737305 113.66366455 -98.04974609 114.4523291 -98.26855469 115.26489258 C-99.73848254 120.79991162 -101.09155894 126.34199211 -102 132 C-102.17789063 133.08410156 -102.35578125 134.16820312 -102.5390625 135.28515625 C-103.35254445 141.84126928 -103.13598302 148.40806099 -103 155 C-102.98324219 155.94101563 -102.96648437 156.88203125 -102.94921875 157.8515625 C-102.4617602 166.84865454 -99.62844287 175.4371535 -97 184 C-96.690625 185.02609375 -96.38125 186.0521875 -96.0625 187.109375 C-91.89649625 199.68177916 -83.89813214 214.1077756 -74 223 C-73.34 223 -72.68 223 -72 223 C-71.835 223.680625 -71.67 224.36125 -71.5 225.0625 C-69.27285537 229.42399156 -65.75286269 231.94159228 -62 235 C-61.44441406 235.47953125 -60.88882813 235.9590625 -60.31640625 236.453125 C-54.22526991 241.70574127 -47.05756364 245.22438629 -40 249 C-38.56914062 249.78310547 -38.56914062 249.78310547 -37.109375 250.58203125 C-16.07188268 261.6914022 7.79555661 263.44436817 31 260 C32.08667969 259.86335937 33.17335938 259.72671875 34.29296875 259.5859375 C46.74940916 257.75252203 57.94587357 251.70972014 69 246 C70.06347656 245.49726563 71.12695312 244.99453125 72.22265625 244.4765625 C74.72406958 243.14669719 76.12686175 242.05335272 78 240 C79.12746367 239.1419766 80.27400285 238.308488 81.4375 237.5 C82.0459375 237.07074219 82.654375 236.64148438 83.28125 236.19921875 C84.66460343 235.23401533 86.05062862 234.27264172 87.4375 233.3125 C87.953125 232.879375 88.46875 232.44625 89 232 C89 231.34 89 230.68 89 230 C89.99 229.67 90.98 229.34 92 229 C94.40995366 226.36458982 94.40995366 226.36458982 95 223 C95.5775 222.773125 96.155 222.54625 96.75 222.3125 C99.68495224 220.60044453 100.98342029 218.76559504 103 216 C103.50402344 215.34386719 104.00804687 214.68773437 104.52734375 214.01171875 C112.81751516 202.82656684 118.00857074 190.96916744 121.9375 177.6875 C122.23205078 176.6979834 122.52660156 175.7084668 122.83007812 174.68896484 C130.72078474 146.59823671 125.02042533 115.85738351 110.95849609 90.703125 C110.64219238 90.14109375 110.32588867 89.5790625 110 89 C109.48050781 88.0409375 108.96101562 87.081875 108.42578125 86.09375 C102.99123925 76.78521458 94.27073603 65.79687402 85 60 C84.34 60 83.68 60 83 60 C82.74726318 59.39406006 82.49452637 58.78812012 82.23413086 58.16381836 C80.82546924 55.69399286 79.66699797 54.84073014 77.25390625 53.37890625 C76.50496094 52.92080566 75.75601563 52.46270508 74.984375 51.99072266 C73.78554688 51.28375244 73.78554688 51.28375244 72.5625 50.5625 C71.33080078 49.82845947 71.33080078 49.82845947 70.07421875 49.07958984 C33.82619792 27.73242143 -9.72124294 28.21730514 -46.375 48.5 Z M142 121 C143 123 143 123 143 123 Z " fill="#3C3C3C" transform="translate(229,93)"/>
<path d="M0 0 C4.04173657 0.40552541 8.01611849 1.21902906 12 2 C13.01191406 2.1959375 14.02382812 2.391875 15.06640625 2.59375 C16.01386719 2.8103125 16.96132812 3.026875 17.9375 3.25 C18.79214844 3.44078125 19.64679688 3.6315625 20.52734375 3.828125 C23.97574123 5.4624366 26.10919539 7.74999656 28 11 C28.66889989 13.70078825 29.12165792 16.08288432 29.4375 18.8125 C30.51038921 25.79940271 32.31042437 30.56387758 37 36 C37.65742188 36.77988281 38.31484375 37.55976563 38.9921875 38.36328125 C44.79167905 45.04911018 51.09150504 51.03286011 57.6953125 56.9140625 C61.73802042 60.57305577 61.73802042 60.57305577 63 62 C63 62.66 63 63.32 63 64 C63.66 64.66 64.32 65.32 65 66 C67 68 67 68 67 70 C71.73850456 67.29228311 74.44327532 64.41258068 77.5078125 59.90234375 C79.14610292 57.8137379 80.77266093 56.43569446 83 55 C83.66 55 84.32 55 85 55 C85.66 53.68 86.32 52.36 87 51 C87.66 51 88.32 51 89 51 C89.268125 50.4225 89.53625 49.845 89.8125 49.25 C91.02929189 46.94449957 92.30333879 44.97943808 94 43 C94.66 43 95.32 43 96 43 C96 42.34 96 41.68 96 41 C96.66 41 97.32 41 98 41 C98.309375 40.1646875 98.309375 40.1646875 98.625 39.3125 C100.57683032 36.02987629 102.94230994 34.29326754 106 32 C106.66 32 107.32 32 108 32 C108.66 30.68 109.32 29.36 110 28 C110.66 28 111.32 28 112 28 C112.33 26.68 112.66 25.36 113 24 C113.66 24 114.32 24 115 24 C115.33 22.68 115.66 21.36 116 20 C116.66 20 117.32 20 118 20 C118.061875 19.278125 118.12375 18.55625 118.1875 17.8125 C119.49995185 13.26939743 122.59145887 10.93902742 126.4375 8.375 C127.283125 7.92125 128.12875 7.4675 129 7 C129.99 6.401875 130.98 5.80375 132 5.1875 C135 4 135 4 137.8125 4.4375 C140 6 140 6 141.125 8.5625 C140.90382092 14.64492468 137.57287902 19.1212834 133.75 23.6875 C130.68965799 26.26096942 127.48398559 28.42168955 124.13671875 30.6015625 C119.47205508 33.6544868 116.06496556 37.02532282 112.53515625 41.27734375 C110.27638719 43.811993 107.60519662 45.82900282 105 48 C103.37656762 49.80896751 101.82514354 51.65708057 100.296875 53.546875 C99 55 99 55 97 56 C96.67 56.99 96.34 57.98 96 59 C95.34 59 94.68 59 94 59 C94 59.66 94 60.32 94 61 C93.38125 61.0825 92.7625 61.165 92.125 61.25 C89.84509449 61.77434479 89.84509449 61.77434479 89.1171875 63.82421875 C87.78610552 66.41657072 86.24318858 67.71929174 84 69.5625 C81.44227537 71.67356316 79.866865 73.19970251 78 76 C78 77.32 78 78.64 78 80 C78.598125 80.28875 79.19625 80.5775 79.8125 80.875 C83.5241346 82.78384065 85.35107192 84.19478136 87 88 C87.66 88 88.32 88 89 88 C90.55078125 89.57421875 90.55078125 89.57421875 92.3125 91.6875 C96.72030808 96.85872226 101.36300634 101.39995609 106.64453125 105.66796875 C107.09183594 106.10753906 107.53914062 106.54710937 108 107 C108 107.66 108 108.32 108 109 C108.9590625 109.185625 108.9590625 109.185625 109.9375 109.375 C110.9584375 109.684375 110.9584375 109.684375 112 110 C112.33 110.66 112.66 111.32 113 112 C119.48615396 114.5285007 126.02675306 115.89273324 132.86328125 117.15625 C135.97590515 117.9935187 137.73862952 118.72187863 140 121 C140 121.99 140 122.98 140 124 C140.66 124.33 141.32 124.66 142 125 C143.77680611 129.3827884 144.50789315 133.70261954 145.125 138.375 C145.29257812 139.62023437 145.46015625 140.86546875 145.6328125 142.1484375 C145.75398437 143.08945312 145.87515625 144.03046875 146 145 C144.1875 146.5625 144.1875 146.5625 142 148 C138.62691239 146.87563746 137.84876903 145.92657267 135.625 143.25 C133.52224374 140.75883654 131.424199 138.37231472 129.0625 136.125 C127 134 127 134 127 132 C125.70590408 132.45142881 124.41478941 132.91141021 123.125 133.375 C122.40570313 133.63023437 121.68640625 133.88546875 120.9453125 134.1484375 C118.81842006 134.93877783 118.81842006 134.93877783 117 137 C116.63087727 141.15263069 116.96359593 144.33447267 119 148 C120.3153341 148.70151152 121.65117592 149.36525925 123 150 C124.37868281 151.62935241 125.71274093 153.29749607 127 155 C127.98230498 156.0173873 128.97469597 157.02596117 130 158 C128.25 161.875 128.25 161.875 126 163 C123.38120647 162.65943941 120.83926662 162.24650812 118.25 161.75 C117.54617188 161.62753906 116.84234375 161.50507813 116.1171875 161.37890625 C110.62976594 160.34873975 106.00377022 158.78112909 101.75 155 C99.16987151 150.5769226 98.68715473 146.02435719 98 141 C97.25187177 135.85661841 96.60915238 132.60915238 92.875 128.875 C92.25625 128.25625 91.6375 127.6375 91 127 C91 126.34 91 125.68 91 125 C90.34 125 89.68 125 89 125 C89 124.34 89 123.68 89 123 C88.34 123 87.68 123 87 123 C87 122.34 87 121.68 87 121 C86.34 121 85.68 121 85 121 C83.60946976 119.42366615 82.28827212 117.78595085 81 116.125 C76.36855756 110.31875264 71.35607576 105.15480361 66 100 C65.01 100.495 65.01 100.495 64 101 C63.34 99.68 62.68 98.36 62 97 C62.495 98.0828125 62.495 98.0828125 63 99.1875 C64.04684003 102.13173758 64.56689432 103.92257371 64 107 C59.72582298 109.88276328 55.0178519 112.07213199 50.42578125 114.40234375 C47.82204198 116.11720584 47.18660451 117.20008098 46 120 C45.01 120.495 45.01 120.495 44 121 C43.505 122.485 43.505 122.485 43 124 C41.68945377 125.35573748 40.35251497 126.68612831 39 128 C37.948125 129.36125 37.948125 129.36125 36.875 130.75 C36.25625 131.4925 35.6375 132.235 35 133 C34.34 133 33.68 133 33 133 C33 133.66 33 134.32 33 135 C32.02596117 136.02530403 31.0173873 137.01769502 30 138 C26.32054387 142.10071283 26.32054387 142.10071283 24 147 C23.01 147.33 22.02 147.66 21 148 C20.67 148.99 20.34 149.98 20 151 C19.34 151 18.68 151 18 151 C17.896875 151.61875 17.79375 152.2375 17.6875 152.875 C17 155 17 155 14 157 C13.608125 157.7425 13.21625 158.485 12.8125 159.25 C10.24312128 163.14836771 7.1592469 165.85550756 3 168 C-0.79774143 167.93774194 -3.42843714 167.19052095 -7 166 C-8.35386936 164.34997172 -9.68678142 162.6825613 -11 161 C-11.99 160.34 -12.98 159.68 -14 159 C-14 158.34 -14 157.68 -14 157 C-14.66 157 -15.32 157 -16 157 C-20.53612744 152.1319608 -22.04424192 149.78724066 -21.9375 143.0625 C-21.4259348 139.48818731 -20.96882923 138.96812081 -18.25 136.1875 C-16.33188977 134.89646427 -14.38248632 133.64713504 -12.375 132.5 C-9.57417658 130.73105889 -8.03938622 128.58322255 -6 126 C-4.515 125.505 -4.515 125.505 -3 125 C-1.64127686 123.69254943 -0.31157878 122.35473859 1 121 C2.71167048 119.54171066 4.44221478 118.10538684 6.1875 116.6875 C7.15042969 115.90503906 8.11335938 115.12257813 9.10546875 114.31640625 C12.41260706 111.66980299 15.7543784 109.07295467 19.125 106.5078125 C20.97052417 105.08068239 20.97052417 105.08068239 22.375 103.6171875 C24 102 24 102 26.97265625 99.765625 C30.85003256 96.57375829 32.41020687 92.38627433 34.18945312 87.8203125 C34.99609375 85.984375 34.99609375 85.984375 37 83 C40.59765625 82.203125 40.59765625 82.203125 44 82 C44.66 81.34 45.32 80.68 46 80 C44.04468135 78.0177733 42.08594334 76.03914884 40.125 74.0625 C39.29162109 73.21655273 39.29162109 73.21655273 38.44140625 72.35351562 C35.5078429 69.30139972 35.5078429 69.30139972 32 67 C32 66.34 32 65.68 32 65 C31.41734375 64.731875 30.8346875 64.46375 30.234375 64.1875 C27.97213399 62.98519009 26.19423682 61.66174087 24.25 60 C23.63640625 59.484375 23.0228125 58.96875 22.390625 58.4375 C21 57 21 57 21 55 C20.01 55 19.02 55 18 55 C15.8125 53.125 15.8125 53.125 14 51 C14 50.34 14 49.68 14 49 C13.030625 49.020625 12.06125 49.04125 11.0625 49.0625 C8 49 8 49 7 48 C3.88410787 47.40989739 0.76851821 46.85515554 -2.36523438 46.36914062 C-6.80854649 45.57429594 -9.27845853 44.63941984 -12 41 C-15.20702547 34.62667319 -17.38430059 27.18642102 -17 20 C-16.0078125 17.71484375 -16.0078125 17.71484375 -15 16 C-9.52665359 16.81086613 -6.36153177 20.49044322 -3.0625 24.625 C-0.36189862 27.8449478 1.71600719 29.36195852 6 30 C8.78400707 29.81992412 8.78400707 29.81992412 11 28 C12.31245167 25.41709512 13.20436757 22.78147924 14 20 C13.34 20 12.68 20 12 20 C10.51953125 18.49609375 10.51953125 18.49609375 8.8125 16.4375 C5.82258669 12.8810768 2.65991809 9.72389279 -0.8125 6.640625 C-2 5 -2 5 -1.75 2.859375 C-1 1 -1 1 0 0 Z M66 86 C67 88 67 88 67 88 Z M63 89 C64 91 64 91 64 91 Z M59 95 C59.66 95.66 60.32 96.32 61 97 C61 96.34 61 95.68 61 95 C60.34 95 59.68 95 59 95 Z " fill="#3F3F3F" transform="translate(179,156)"/>
<path d="M0 0 C4.04173657 0.40552541 8.01611849 1.21902906 12 2 C13.01191406 2.1959375 14.02382812 2.391875 15.06640625 2.59375 C16.01386719 2.8103125 16.96132812 3.026875 17.9375 3.25 C18.79214844 3.44078125 19.64679688 3.6315625 20.52734375 3.828125 C23.97574123 5.4624366 26.10919539 7.74999656 28 11 C28.66889989 13.70078825 29.12165792 16.08288432 29.4375 18.8125 C30.51038921 25.79940271 32.31042437 30.56387758 37 36 C37.65742188 36.77988281 38.31484375 37.55976563 38.9921875 38.36328125 C44.79167905 45.04911018 51.09150504 51.03286011 57.6953125 56.9140625 C61.73802042 60.57305577 61.73802042 60.57305577 63 62 C63 62.66 63 63.32 63 64 C63.66 64.66 64.32 65.32 65 66 C67 68 67 68 67 70 C68.32 69.67 69.64 69.34 71 69 C69.57159117 70.66647696 68.14266592 72.33246566 66.7109375 73.99609375 C65.62234726 75.27108643 64.5430891 76.55415091 63.4765625 77.84765625 C60.26745838 81.71046677 56.95106268 84.89559361 53 88 C50.08482708 86.92598892 48.22189824 86.22189824 46 84 C47.485 83.505 47.485 83.505 49 83 C48.28199219 82.28328125 47.56398438 81.5665625 46.82421875 80.828125 C45.00905657 79.01045222 43.19873609 77.18792443 41.39453125 75.359375 C40.54246094 74.49828125 39.69039062 73.6371875 38.8125 72.75 C37.95269531 71.87859375 37.09289062 71.0071875 36.20703125 70.109375 C34.18568934 67.97005762 34.18568934 67.97005762 32 67 C32 66.34 32 65.68 32 65 C31.41734375 64.731875 30.8346875 64.46375 30.234375 64.1875 C27.97213399 62.98519009 26.19423682 61.66174087 24.25 60 C23.63640625 59.484375 23.0228125 58.96875 22.390625 58.4375 C21 57 21 57 21 55 C20.01 55 19.02 55 18 55 C15.8125 53.125 15.8125 53.125 14 51 C14 50.34 14 49.68 14 49 C13.030625 49.020625 12.06125 49.04125 11.0625 49.0625 C8 49 8 49 7 48 C3.88410787 47.40989739 0.76851821 46.85515554 -2.36523438 46.36914062 C-6.80854649 45.57429594 -9.27845853 44.63941984 -12 41 C-15.20702547 34.62667319 -17.38430059 27.18642102 -17 20 C-16.0078125 17.71484375 -16.0078125 17.71484375 -15 16 C-9.52665359 16.81086613 -6.36153177 20.49044322 -3.0625 24.625 C-0.36189862 27.8449478 1.71600719 29.36195852 6 30 C8.78400707 29.81992412 8.78400707 29.81992412 11 28 C12.31245167 25.41709512 13.20436757 22.78147924 14 20 C13.34 20 12.68 20 12 20 C10.51953125 18.49609375 10.51953125 18.49609375 8.8125 16.4375 C5.82258669 12.8810768 2.65991809 9.72389279 -0.8125 6.640625 C-2 5 -2 5 -1.75 2.859375 C-1 1 -1 1 0 0 Z " fill="#3F3F3F" transform="translate(179,156)"/>
<path d="M0 0 C0.66 0.33 1.32 0.66 2 1 C0.5045292 4.59721356 -1.52706308 6.63097221 -4.4375 9.1875 C-5.33339844 9.97511719 -6.22929687 10.76273437 -7.15234375 11.57421875 C-10.80565284 14.68629686 -14.52392794 17.71195316 -18.2578125 20.7265625 C-21.85910533 23.71224972 -25.29129539 26.863784 -28.7109375 30.0546875 C-34.53012048 35 -34.53012048 35 -38 35 C-37.74268542 31.75329542 -36.83325016 30.83809458 -34.4453125 28.51953125 C-33.34656581 27.60743386 -32.23924306 26.7056004 -31.125 25.8125 C-30.54508301 25.33635254 -29.96516602 24.86020508 -29.36767578 24.36962891 C-28.17076988 23.38826404 -26.97070502 22.41073982 -25.76757812 21.43701172 C-24.09705234 20.07890194 -22.44425044 18.70244898 -20.796875 17.31640625 C-13.39496451 11.13165484 -13.39496451 11.13165484 -10 10 C-10 9.34 -10 8.68 -10 8 C-8.06640625 6.30859375 -8.06640625 6.30859375 -5.5625 4.4375 C-2.67307373 2.34532911 -2.67307373 2.34532911 0 0 Z " fill="#F1F1F1" transform="translate(209,257)"/>
<path d="M0 0 C0.66 0.33 1.32 0.66 2 1 C1.64182153 3.71618672 1.17683958 4.8303398 -0.828125 6.75390625 C-1.62734375 7.35074219 -2.4265625 7.94757813 -3.25 8.5625 C-8.17646382 12.33732293 -12.91162836 16.27894965 -17.62011719 20.31860352 C-20.01754641 22.3647866 -22.37320669 24.24880446 -25 26 C-25.66 26.99 -26.32 27.98 -27 29 C-27 28.01 -27 27.02 -27 26 C-27.66 25.67 -28.32 25.34 -29 25 C-24.375 19.125 -24.375 19.125 -21 18 C-19.64254637 16.69123142 -18.31288884 15.35346904 -17 14 C-15.22485379 12.50104723 -13.432057 11.02282478 -11.625 9.5625 C-10.66207031 8.78132813 -9.69914062 8.00015625 -8.70703125 7.1953125 C-7.81371094 6.47085937 -6.92039063 5.74640625 -6 5 C-3.99328209 3.34111319 -1.99573122 1.67209913 0 0 Z " fill="#848484" transform="translate(197,263)"/>
<path d="M0 0 C0.66 0.33 1.32 0.66 2 1 C1.67 1.66 1.34 2.32 1 3 C2.32 3 3.64 3 5 3 C4.5317879 7.77576339 3.75668002 11.04476345 1 15 C-1.31 14.67 -3.62 14.34 -6 14 C-4.16508812 9.25981099 -2.08058541 4.63586749 0 0 Z " fill="#777777" transform="translate(216,239)"/>
<path d="M0 0 C0.66 0.33 1.32 0.66 2 1 C1.61222896 3.39805772 1.31265274 4.69575191 -0.453125 6.4140625 C-3.12627306 8.21553184 -5.54703037 9.82323136 -8.5625 11 C-10.94464323 11.97728953 -12.26356023 12.96130329 -14.1875 14.625 C-17 17 -17 17 -19 17 C-19 17.66 -19 18.32 -19 19 C-19.66 18.67 -20.32 18.34 -21 18 C-18.04597085 14.94195574 -14.93100081 12.23415612 -11.625 9.5625 C-10.18060547 8.39074219 -10.18060547 8.39074219 -8.70703125 7.1953125 C-7.81371094 6.47085937 -6.92039063 5.74640625 -6 5 C-3.99328209 3.34111319 -1.99573122 1.67209913 0 0 Z " fill="#A4A4A4" transform="translate(197,263)"/>
<path d="M0 0 C-1.33363972 4.00091915 -3.803754 5.33646167 -7 8 C-7.33 8.99 -7.66 9.98 -8 11 C-8.66 11 -9.32 11 -10 11 C-10 11.66 -10 12.32 -10 13 C-10.928125 13.12375 -10.928125 13.12375 -11.875 13.25 C-14.13953908 13.77260299 -14.13953908 13.77260299 -14.875 15.75 C-16.54100513 19.08201026 -19.07916393 20.71412829 -22 23 C-22 20 -22 20 -20.64453125 18.3515625 C-20.03996094 17.78179687 -19.43539063 17.21203125 -18.8125 16.625 C-18.16796875 16.00753906 -17.5234375 15.39007813 -16.859375 14.75390625 C-16.24578125 14.17511719 -15.6321875 13.59632813 -15 13 C-14.195625 12.195625 -13.39125 11.39125 -12.5625 10.5625 C-11.716875 9.716875 -10.87125 8.87125 -10 8 C-9.00226563 6.96746094 -9.00226563 6.96746094 -7.984375 5.9140625 C-7.26765625 5.17929688 -6.5509375 4.44453125 -5.8125 3.6875 C-4.80123047 2.64142578 -4.80123047 2.64142578 -3.76953125 1.57421875 C-2 0 -2 0 0 0 Z " fill="#E5E5E5" transform="translate(283,204)"/>
<path d="M0 0 C0.66 0.66 1.32 1.32 2 2 C-0.66666667 4.66666667 -3.33333333 7.33333333 -6 10 C-8.91517292 8.92598892 -10.77810176 8.22189824 -13 6 C-11.35 5.34 -9.7 4.68 -8 4 C-8 4.66 -8 5.32 -8 6 C-7.05125 5.195625 -6.1025 4.39125 -5.125 3.5625 C-3.42067644 2.11753003 -2.00519014 1.00259507 0 0 Z " fill="#ECECEC" transform="translate(238,234)"/>
<path d="M0 0 C0.66 0.33 1.32 0.66 2 1 C1.67 1.66 1.34 2.32 1 3 C0.88398438 3.63679687 0.76796875 4.27359375 0.6484375 4.9296875 C-0.16560542 7.52874021 -1.27081584 8.42922289 -3.375 10.125 C-3.98085937 10.62257812 -4.58671875 11.12015625 -5.2109375 11.6328125 C-6.76146363 12.81771238 -8.37630357 13.91753571 -10 15 C-8.83628073 8.01768439 -5.1709197 4.62977694 0 0 Z " fill="#E7E7E7" transform="translate(256,229)"/>
<path d="M0 0 C0.66 0 1.32 0 2 0 C2.66 1.32 3.32 2.64 4 4 C4.58007812 3.86722656 5.16015625 3.73445313 5.7578125 3.59765625 C10.15770982 2.60295999 14.53894158 1.68631668 19 1 C19.66 2.32 20.32 3.64 21 5 C20.27941406 4.8040625 19.55882812 4.608125 18.81640625 4.40625 C15.62851402 3.94641534 13.94282091 4.42235788 10.9375 5.5 C7.58444382 6.69862717 5.35791651 7.48993647 2 6 C0.75 2.9375 0.75 2.9375 0 0 Z " fill="#E6E6E6" transform="translate(125,329)"/>
<path d="M0 0 C3.8134422 0.67296039 7.34366895 1.73147698 11 3 C12.11375 3.37125 13.2275 3.7425 14.375 4.125 C15.24125 4.41375 16.1075 4.7025 17 5 C17 5.66 17 6.32 17 7 C13.84065408 6.54866487 11.05155006 6.01974258 8.0625 4.875 C4.37434944 3.8212427 1.7263516 4.25472968 -2 5 C-2.33 4.34 -2.66 3.68 -3 3 C-2.34 3 -1.68 3 -1 3 C-0.67 2.01 -0.34 1.02 0 0 Z " fill="#DBDBDB" transform="translate(274,97)"/>
<path d="M0 0 C0.66 0.33 1.32 0.66 2 1 C1.38722388 3.96175123 0.74627478 5.38058783 -1 8 C-1.66 8 -2.32 8 -3 8 C-2.67 8.99 -2.34 9.98 -2 11 C-2.99 11.495 -2.99 11.495 -4 12 C-4 11.34 -4 10.68 -4 10 C-5.32 10 -6.64 10 -8 10 C-6.34908222 5.70761377 -3.26245434 3.1206085 0 0 Z M-2 4 C-1 6 -1 6 -1 6 Z " fill="#E2E2E2" transform="translate(244,241)"/>
<path d="M0 0 C0.66 0 1.32 0 2 0 C1.53898164 4.70238725 0.96823597 8.23262357 -2 12 C-2.99 12 -3.98 12 -5 12 C-4.42365861 7.24518354 -2.44931479 4.02951788 0 0 Z " fill="#E6E6E6" transform="translate(219,242)"/>
<path d="M0 0 C0.33 0.66 0.66 1.32 1 2 C2.32 1.67 3.64 1.34 5 1 C-1.15034169 8.48291572 -1.15034169 8.48291572 -5 11 C-5.66 10.01 -6.32 9.02 -7 8 C-5.47005208 6.79557292 -3.94010417 5.59114583 -2.41015625 4.38671875 C-0.72844923 2.94316909 -0.72844923 2.94316909 0 0 Z " fill="#EDEDED" transform="translate(245,224)"/>
<path d="M0 0 C0.99 0.495 0.99 0.495 2 1 C2 1.66 2 2.32 2 3 C2.969375 3.28875 3.93875 3.5775 4.9375 3.875 C8 5 8 5 9 7 C10.32 6.01 11.64 5.02 13 4 C13 4.99 13 5.98 13 7 C12.34 7.66 11.68 8.32 11 9 C6.93523764 8.69890649 3.41131304 6.03366739 0 4 C0 2.68 0 1.36 0 0 Z " fill="#F0F0F0" transform="translate(296,116)"/>
<path d="M0 0 C0.66 0.33 1.32 0.66 2 1 C1.07316406 1.91523438 0.14632813 2.83046875 -0.80859375 3.7734375 C-2.01836039 4.9738261 -3.22798865 6.17435417 -4.4375 7.375 C-5.04916016 7.97828125 -5.66082031 8.5815625 -6.29101562 9.203125 C-7.1659668 10.07324219 -7.1659668 10.07324219 -8.05859375 10.9609375 C-8.59798584 11.49509277 -9.13737793 12.02924805 -9.69311523 12.57958984 C-11.10846977 13.98652388 -11.10846977 13.98652388 -12 16 C-12.66 15.67 -13.32 15.34 -14 15 C-13.34 13.68 -12.68 12.36 -12 11 C-11.34 11 -10.68 11 -10 11 C-10 10.34 -10 9.68 -10 9 C-9.34 9 -8.68 9 -8 9 C-7.79375 8.443125 -7.5875 7.88625 -7.375 7.3125 C-5.44999226 4.07498698 -2.96149098 2.31768859 0 0 Z " fill="#F1F1F1" transform="translate(285,188)"/>
<path d="M0 0 C0.99 0.33 1.98 0.66 3 1 C3.268125 1.969375 3.53625 2.93875 3.8125 3.9375 C4.204375 4.948125 4.59625 5.95875 5 7 C7.93798554 8.39619529 7.93798554 8.39619529 11 9 C11.66 9.33 12.32 9.66 13 10 C9.8966499 10.9753386 8.46268126 11.20312836 5.4375 9.875 C2.74677451 7.80521116 0.85119408 5.84799089 -1 3 C-0.67 2.01 -0.34 1.02 0 0 Z " fill="#EBEBEB" transform="translate(331,139)"/>
<path d="M0 0 C0.99 0.33 1.98 0.66 3 1 C3 1.66 3 2.32 3 3 C3.66 3 4.32 3 5 3 C3.33333333 8 1.66666667 13 0 18 C-1.55752014 13.60229607 -0.04293564 10.64799078 1.50390625 6.4375 C2.0971748 3.52254273 1.58393743 2.45254827 0 0 Z " fill="#EAEAEA" transform="translate(146,334)"/>
<path d="M0 0 C0.99 0.33 1.98 0.66 3 1 C1.23977508 2.53309913 -0.53353463 4.05118701 -2.3125 5.5625 C-3.79169922 6.83287109 -3.79169922 6.83287109 -5.30078125 8.12890625 C-6.19152344 8.74636719 -7.08226562 9.36382812 -8 10 C-8.99 9.67 -9.98 9.34 -11 9 C-10.34 9 -9.68 9 -9 9 C-9 8.34 -9 7.68 -9 7 C-7.28515625 5.52734375 -7.28515625 5.52734375 -5.0625 3.9375 C-2.41985962 2.10094469 -2.41985962 2.10094469 0 0 Z " fill="#3F3F3F" transform="translate(187,273)"/>
<path d="M0 0 C0.33 1.32 0.66 2.64 1 4 C0.34 4 -0.32 4 -1 4 C-1.33 5.32 -1.66 6.64 -2 8 C-1.34 8 -0.68 8 0 8 C0.33 10.31 0.66 12.62 1 15 C-1.32387328 12.14797371 -3.22218869 9.62978611 -4 6 C-2.125 2.6875 -2.125 2.6875 0 0 Z " fill="#EAEAEA" transform="translate(360,169)"/>
<path d="M0 0 C0.33 0.66 0.66 1.32 1 2 C5.62 2 10.24 2 15 2 C15.33 3.32 15.66 4.64 16 6 C15.45601562 5.66871094 14.91203125 5.33742188 14.3515625 4.99609375 C10.73058027 3.46228898 7.32732954 4.01016017 3.4609375 4.22265625 C2.64882812 4.14917969 1.83671875 4.07570313 1 4 C0.34 3.01 -0.32 2.02 -1 1 C-0.67 0.67 -0.34 0.34 0 0 Z " fill="#C2C2C2" transform="translate(105,293)"/>
<path d="M0 0 C2.33944736 0.28730055 4.6739143 0.61936779 7 1 C7 1.33 7 1.66 7 2 C5.02 2.33 3.04 2.66 1 3 C1.33 3.598125 1.66 4.19625 2 4.8125 C3 7 3 7 3 10 C0.4375 7.75 0.4375 7.75 -2 5 C-1.87165745 2.68983403 -1.63394255 1.63394255 0 0 Z " fill="#E6E6E6" transform="translate(179,156)"/>
<path d="M0 0 C0.66 0 1.32 0 2 0 C0.6618467 4.0144599 -1.76313892 5.35766442 -5 8 C-5.99 9.485 -5.99 9.485 -7 11 C-7.66 10.67 -8.32 10.34 -9 10 C-7.8758824 8.70756532 -6.75067408 7.41607925 -5.625 6.125 C-4.99851562 5.40570313 -4.37203125 4.68640625 -3.7265625 3.9453125 C-2.52573166 2.5923402 -1.2791655 1.2791655 0 0 Z " fill="#DFDFDF" transform="translate(293,192)"/>
<path d="M0 0 C0.66 0.66 1.32 1.32 2 2 C-0.0625 4.5 -0.0625 4.5 -3 7 C-6.8125 7.3125 -6.8125 7.3125 -10 7 C-9.67 6.01 -9.34 5.02 -9 4 C-8.05125 4.020625 -7.1025 4.04125 -6.125 4.0625 C-3.09333717 4.22551826 -3.09333717 4.22551826 -1 3 C-0.67 2.01 -0.34 1.02 0 0 Z " fill="#EBEBEB" transform="translate(269,103)"/>
<path d="M0 0 C0.66 0.33 1.32 0.66 2 1 C2 5.62 2 10.24 2 15 C1.01 14.67 0.02 14.34 -1 14 C-0.83628906 13.44828125 -0.67257813 12.8965625 -0.50390625 12.328125 C0.05760414 9.73385993 0.09739008 7.40164589 0.0625 4.75 C0.05347656 3.85796875 0.04445312 2.9659375 0.03515625 2.046875 C0.02355469 1.37140625 0.01195312 0.6959375 0 0 Z " fill="#B2B2B2" transform="translate(184,105)"/>
<path d="M0 0 C2.57734905 2.57734905 2 3.47045969 2 7 C2.92745649 9.73774618 2.92745649 9.73774618 4 12 C1.4375 10.5 1.4375 10.5 -1 8 C-1.15374792 5.12271746 -0.61846819 2.85446858 0 0 Z " fill="#F1F1F1" transform="translate(294,292)"/>
<path d="M0 0 C-1.15093722 3.45281166 -2.3205993 4.38082163 -5.0625 6.6875 C-5.79597656 7.31011719 -6.52945312 7.93273437 -7.28515625 8.57421875 C-7.85105469 9.04472656 -8.41695313 9.51523438 -9 10 C-9 7 -9 7 -7.5390625 5.17578125 C-6.90742188 4.56089844 -6.27578125 3.94601563 -5.625 3.3125 C-4.68527344 2.37857422 -4.68527344 2.37857422 -3.7265625 1.42578125 C-2 0 -2 0 0 0 Z " fill="#DCDCDC" transform="translate(283,204)"/>
<path d="M0 0 C1.81612488 0.95144598 3.62781081 1.91136933 5.4375 2.875 C6.44683594 3.40867187 7.45617187 3.94234375 8.49609375 4.4921875 C11 6 11 6 12 8 C7.1725201 6.58707905 3.2837641 4.57025846 -1 2 C-0.67 1.34 -0.34 0.68 0 0 Z " fill="#E8E8E8" transform="translate(180,336)"/>
<path d="M0 0 C0.66 0.66 1.32 1.32 2 2 C0.25 4.0625 0.25 4.0625 -2 6 C-5.01811422 5.82246387 -5.83735215 5.16264785 -8 3 C-6.576875 3.0928125 -6.576875 3.0928125 -5.125 3.1875 C-3.578125 3.0946875 -3.578125 3.0946875 -2 3 C-1.34 2.01 -0.68 1.02 0 0 Z " fill="#E1E1E1" transform="translate(354,330)"/>
<path d="M0 0 C0.99 0.99 1.98 1.98 3 3 C1.70700306 5.88437779 0.34058637 7.87219421 -2 10 C-2 6.83179542 -1.37202546 5.74405092 0 3 C0 2.01 0 1.02 0 0 Z " fill="#EEEEEE" transform="translate(122,301)"/>
<path d="M0 0 C0.721875 0.61875 1.44375 1.2375 2.1875 1.875 C4.78381938 3.83666353 6.94671666 4.95316 10 6 C10 6.66 10 7.32 10 8 C5.60249328 7.49259538 3.13051078 4.91706686 0 2 C0 1.34 0 0.68 0 0 Z " fill="#DEDEDE" transform="translate(174,180)"/>
<path d="M0 0 C0.66 0.33 1.32 0.66 2 1 C2.4140625 3.06640625 2.4140625 3.06640625 2.625 5.5625 C2.69976562 6.38878906 2.77453125 7.21507812 2.8515625 8.06640625 C2.92503906 9.02353516 2.92503906 9.02353516 3 10 C2.01 10 1.02 10 0 10 C-1.125 2.25 -1.125 2.25 0 0 Z " fill="#DADADA" transform="translate(146,128)"/>
<path d="M0 0 C2.64 0 5.28 0 8 0 C8 0.99 8 1.98 8 3 C5.36 2.67 2.72 2.34 0 2 C0 1.34 0 0.68 0 0 Z " fill="#EBEBEB" transform="translate(200,380)"/>
<path d="M0 0 C2.8670615 2.8670615 4 4.91591468 4 9 C2.68 8.34 1.36 7.68 0 7 C0 4.69 0 2.38 0 0 Z " fill="#E8E8E8" transform="translate(371,260)"/>
<path d="M0 0 C2.64 0 5.28 0 8 0 C8 0.66 8 1.32 8 2 C5.36 2.33 2.72 2.66 0 3 C0 2.01 0 1.02 0 0 Z " fill="#EAEAEA" transform="translate(273,380)"/>
<path d="M0 0 C0.33 0 0.66 0 1 0 C1 2.31 1 4.62 1 7 C-0.98 7.99 -0.98 7.99 -3 9 C-2 6 -1 3 0 0 Z " fill="#E6E6E6" transform="translate(109,260)"/>
<path d="M0 0 C0.33 0.66 0.66 1.32 1 2 C0.34 1.67 -0.32 1.34 -1 1 C-0.67 0.67 -0.34 0.34 0 0 Z " fill="#FFFFFF" transform="translate(338,332)"/>
<path d="" fill="#FFFFFF" transform="translate(0,0)"/>
<path d="" fill="#FFFFFF" transform="translate(0,0)"/>
<path d="" fill="#FFFFFF" transform="translate(0,0)"/>
<path d="" fill="#FFFFFF" transform="translate(0,0)"/>
<path d="" fill="#FFFFFF" transform="translate(0,0)"/>
<path d="" fill="#FFFFFF" transform="translate(0,0)"/>
<path d="" fill="#FFFFFF" transform="translate(0,0)"/>
<path d="" fill="#FFFFFF" transform="translate(0,0)"/>
<path d="" fill="#FFFFFF" transform="translate(0,0)"/>
<path d="" fill="#FFFFFF" transform="translate(0,0)"/>
<path d="" fill="#FFFFFF" transform="translate(0,0)"/>
<path d="" fill="#FFFFFF" transform="translate(0,0)"/>
<path d="" fill="#FFFFFF" transform="translate(0,0)"/>
<path d="" fill="#FFFFFF" transform="translate(0,0)"/>
<path d="" fill="#FFFFFF" transform="translate(0,0)"/>
<path d="" fill="#FFFFFF" transform="translate(0,0)"/>
<path d="" fill="#FFFFFF" transform="translate(0,0)"/>
<path d="" fill="#FFFFFF" transform="translate(0,0)"/>
<path d="" fill="#FFFFFF" transform="translate(0,0)"/>
<path d="" fill="#FFFFFF" transform="translate(0,0)"/>
<path d="" fill="#FFFFFF" transform="translate(0,0)"/>
<path d="" fill="#FFFFFF" transform="translate(0,0)"/>
<path d="" fill="#FFFFFF" transform="translate(0,0)"/>
<path d="" fill="#FFFFFF" transform="translate(0,0)"/>
<path d="" fill="#FFFFFF" transform="translate(0,0)"/>
</svg>
